<svg xmlns="http://www.w3.org/2000/svg" width="512" height="512" viewBox="0 0 512 512">
  <defs>
    <linearGradient id="bg" x1="0" y1="0" x2="1" y2="1">
      <stop offset="0" stop-color="#265f92"/>
      <stop offset="1" stop-color="#163c5f"/>
    </linearGradient>
  </defs>
  <rect width="512" height="512" rx="104" fill="url(#bg)"/>
  <!-- 打开的书 -->
  <g fill="#ffffff">
    <path d="M256 156 C 224 130 172 118 96 118 L 96 386 C 172 386 224 398 256 424 Z"/>
    <path d="M256 156 C 288 130 340 118 416 118 L 416 386 C 340 386 288 398 256 424 Z"/>
  </g>
  <path d="M256 156 L 256 424" stroke="#265f92" stroke-width="14" stroke-linecap="round"/>
  <!-- 书页文字（示意行） -->
  <g stroke="#1f4e79" stroke-width="10" stroke-linecap="round" opacity="0.45">
    <line x1="132" y1="180" x2="218" y2="180"/>
    <line x1="132" y1="212" x2="204" y2="212"/>
    <line x1="132" y1="244" x2="218" y2="244"/>
    <line x1="294" y1="180" x2="380" y2="180"/>
    <line x1="308" y1="212" x2="380" y2="212"/>
    <line x1="294" y1="244" x2="380" y2="244"/>
  </g>
</svg>
